<svg width="25" height="25" viewBox="0 0 25 25" fill="none" xmlns="http://www.w3.org/2000/svg">
<g clip-path="url(#clip0)">
<path d="M24.0646 6.14082L12.4933 17.7132L0.922071 6.14082C0.706201 5.93229 0.362143 5.9383 0.153609 6.15417C-0.0497789 6.3648 -0.0497789 6.69866 0.153609 6.90924L12.1096 18.8653C12.3218 19.0774 12.6658 19.0774 12.8781 18.8653L24.8341 6.90924C25.05 6.7007 25.056 6.35669 24.8475 6.14077C24.6389 5.9249 24.2949 5.91894 24.079 6.12742C24.0745 6.13181 24.07 6.13624 24.0657 6.14077L24.0646 6.14082Z" fill="#FFC108"/>
<path d="M12.4933 19.0251C12.3491 19.0253 12.2107 18.9683 12.1086 18.8664L0.152545 6.91034C-0.055989 6.69446 -0.049977 6.35041 0.165893 6.14187C0.376516 5.93849 0.710384 5.93849 0.920956 6.14187L12.4933 17.7131L24.0645 6.1408C24.2731 5.92493 24.6171 5.91897 24.833 6.12746C25.0489 6.33599 25.0548 6.68 24.8464 6.89592C24.842 6.90045 24.8375 6.90488 24.833 6.90927L12.877 18.8653C12.7753 18.9673 12.6373 19.0247 12.4933 19.0251Z" fill="#E1DFDF"/>
</g>
<defs>
<clipPath id="clip0">
<rect width="25" height="25" fill="white"/>
</clipPath>
</defs>
</svg>
