<svg width="14" height="14" viewBox="0 0 14 14" fill="none" xmlns="http://www.w3.org/2000/svg">
<path d="M13.4874 5.76256C14.1708 6.44598 14.1708 7.55402 13.4874 8.23744C12.804 8.92086 11.696 8.92086 11.0126 8.23744C10.3291 7.55402 10.3291 6.44598 11.0126 5.76256C11.696 5.07915 12.804 5.07915 13.4874 5.76256Z" fill="#607D8B"/>
<path d="M8.23742 5.76256C8.92084 6.44598 8.92084 7.55402 8.23742 8.23744C7.55401 8.92086 6.44597 8.92086 5.76256 8.23744C5.07915 7.55402 5.07915 6.44598 5.76256 5.76256C6.44597 5.07915 7.55401 5.07915 8.23742 5.76256Z" fill="#607D8B"/>
<path d="M2.98743 5.76256C3.67085 6.44598 3.67085 7.55402 2.98743 8.23744C2.30402 8.92086 1.19598 8.92086 0.512561 8.23744C-0.170854 7.55402 -0.170854 6.44598 0.512561 5.76256C1.19598 5.07915 2.30402 5.07915 2.98743 5.76256Z" fill="#607D8B"/>
</svg>
